<svg width="288" height="90" viewBox="0 0 288 90" fill="none" xmlns="http://www.w3.org/2000/svg"><script xmlns=""/>
<path d="M61.1048 9.44003H63.3748C64.1348 9.44003 64.5648 9.87004 64.5648 10.63L64.7848 32.34C64.7848 33.2 64.1348 33.85 63.2747 33.85H59.9248C58.9548 33.85 58.3048 33.42 57.8748 32.45C53.4448 21.65 47.0748 14.2 35.5148 14.2C21.0448 14.2 13.8048 26.73 13.8048 41.74C13.8048 60.32 22.8748 79.11 41.5648 79.11C55.4948 79.11 63.0548 69.39 67.1648 58.37C67.4848 57.61 68.2448 57.29 69.0048 57.61L72.6748 59.23C73.2148 59.55 73.4348 60.42 73.2148 61.07C69.1148 76.41 57.8748 89.48 38.8748 89.48C14.2548 89.48 0.104767 70.15 0.104767 48.12C0.104767 27.92 13.3848 7.29004 35.9648 7.29004C46.3348 7.29004 54.1047 10.64 56.7047 10.64C59.0847 10.64 59.0848 9.45004 61.1348 9.45004L61.1048 9.44003Z" fill="black"/>
<path d="M91.6247 6.08997C92.2747 5.43997 92.8147 5.22998 93.6747 5.22998H95.5147C96.3747 5.33998 96.8147 5.87997 96.8147 6.62997L96.7046 73.37C96.7046 79.2 98.7547 81.25 104.375 82.12C105.345 82.23 105.775 82.88 105.675 83.74L105.455 86.01C105.345 86.77 104.805 87.31 103.945 87.31H76.2947C75.4347 87.31 74.8946 86.77 74.7846 86.01L74.5647 83.74C74.4547 82.87 74.8847 82.23 75.8647 82.12C81.4847 81.26 83.7447 79.2 83.7447 73.37L83.6347 27.79C83.6347 23.79 80.9347 21.31 77.2647 20.66C76.2947 20.44 75.8647 20.01 75.8647 19.15V16.99C75.8647 16.13 76.1847 15.59 76.9447 15.26C83.9647 12.34 87.2047 10.08 91.6347 6.07996L91.6247 6.08997Z" fill="black"/>
<path d="M108.735 62.8999C108.735 47.9999 118.775 36.4399 133.035 36.4399C143.615 36.4399 148.695 43.57 150.425 50.4799C150.535 50.91 150.645 51.5599 150.645 52.2099V53.7199C150.645 54.5799 150.215 55.1199 149.565 55.3399L121.705 65.92C123.975 73.05 129.485 77.7999 137.905 77.5799C142.765 77.4699 147.625 74.9899 150.755 71.2099C151.295 70.5599 152.155 70.2399 153.025 70.7799L154.535 71.8599C155.185 72.3999 155.295 73.2599 154.965 73.9099C152.045 80.9299 144.925 88.81 133.365 88.92C118.675 89.03 108.745 76.82 108.745 62.89L108.735 62.8999ZM137.575 52.9599C138.545 47.5599 135.735 42.92 130.125 42.92C121.805 42.92 118.465 51.5599 120.945 60.5199L137.575 52.9599Z" fill="black"/>
<path d="M195.275 38.3798C199.595 38.3798 202.615 40.9698 202.615 45.3998C202.615 48.0998 201.425 50.1498 199.595 51.5598L194.735 55.2298C194.085 55.6598 193.225 55.3398 193.005 54.6898C192.245 52.5298 190.625 50.9098 188.255 50.9098C185.555 50.9098 182.535 52.0298 180.155 57.6498V73.3798C180.155 79.6398 183.075 81.2598 188.685 82.1298C189.655 82.2398 190.085 82.8898 189.985 83.7498L189.765 86.0198C189.655 86.7798 189.115 87.3198 188.255 87.3198H160.715C159.855 87.3198 159.315 86.7798 159.205 86.0198L158.985 83.7498C158.875 82.8798 159.305 82.2398 160.285 82.1298C165.905 81.2698 167.525 79.2098 167.525 73.3798L167.415 57.0698C167.415 53.0698 164.825 50.5898 161.155 49.9398C160.185 49.7198 159.755 49.2898 159.755 48.4298V46.1598C159.755 45.3998 160.075 44.8598 160.835 44.5398C167.745 42.0598 173.525 41.0798 179.245 36.6598C180.105 36.0098 180.645 35.7998 181.295 35.7998C182.055 35.7998 182.595 36.4498 182.265 37.1998C179.345 44.1098 178.105 46.1798 176.275 54.1798C181.245 45.2198 189.455 38.3898 195.285 38.3898L195.275 38.3798Z" fill="black"/>
<path d="M226.655 36.65C227.305 36.11 227.735 35.79 228.385 35.79C228.925 35.79 229.355 36.11 229.355 36.65L229.245 73.37C229.245 79.2 231.295 81.25 236.915 82.12C237.885 82.23 238.315 82.88 238.215 83.74L237.995 86.01C237.885 86.77 237.345 87.31 236.485 87.31H208.835C207.975 87.31 207.435 86.77 207.325 86.01L207.105 83.74C206.995 82.87 207.425 82.23 208.405 82.12C214.025 81.26 216.615 79.2 216.615 73.37L216.505 58.36C216.505 54.36 213.585 51.99 209.915 51.34C208.945 51.12 208.515 50.69 208.515 49.83V48.21C208.515 47.35 208.835 46.81 209.595 46.48C216.615 43.89 221.365 40.76 226.655 36.65Z" fill="black"/>
<path d="M277.125 54.4699C276.585 54.8999 275.935 55.2299 275.075 55.2299H273.995C273.345 55.2299 272.805 54.9099 272.595 54.1499C270.865 48.2099 268.595 43.3499 262.445 43.3499C256.615 43.3499 253.045 48.8599 253.045 55.8799C253.045 68.2999 259.525 77.3699 271.085 77.3699C275.945 77.3699 280.375 75.3199 283.505 71.5399C284.045 70.8899 284.905 70.5699 285.775 71.1099L287.285 72.1899C287.935 72.7299 288.045 73.5899 287.715 74.2399C284.795 81.2599 277.675 88.9299 266.115 88.9299C251.105 88.9299 241.165 77.1599 241.165 62.7899C241.165 47.0199 252.075 36.4399 266.655 36.4399C271.835 36.4399 276.805 37.9499 280.045 40.8699C283.605 43.7899 284.475 48.6499 280.805 51.5599L277.135 54.4799L277.125 54.4699Z" fill="black"/>
<path d="M223.665 1.3399L226.385 8.2399C226.965 9.7199 228.145 10.8899 229.625 11.4799L236.525 14.1999C237.445 14.5599 237.445 15.8599 236.525 16.2199L229.625 18.9399C228.145 19.5199 226.975 20.6999 226.385 22.1799L223.665 29.0799C223.305 29.9999 222.004 29.9999 221.644 29.0799L218.925 22.1799C218.345 20.6999 217.165 19.5299 215.685 18.9399L208.785 16.2199C207.865 15.8599 207.865 14.5599 208.785 14.1999L215.685 11.4799C217.165 10.8999 218.335 9.7199 218.925 8.2399L221.644 1.3399C222.004 0.419902 223.305 0.419902 223.665 1.3399Z" fill="black"/>
</svg>